<svg
   xmlns="http://www.w3.org/2000/svg"
   x="0px"
   y="0px"
   viewBox="0 0 24 24"
   width="100%"
   height="100%"
   fill="#000"
   style="background:#000"
>

  <g
   transform="matrix(1.0909091,0,0,1.0909091,-1.0909091,-3.1910634)"
  >
      <path
        d="M 12,8 C 7,8 1,14 1,14 c 0,0 6,6 11,6 5,0 11,-6 11,-6 0,0 -6,-6 -11,-6 z m 0,10 c -2.2,0 -4,-1.8 -4,-4 0,-2.2 1.8,-4 4,-4 2.2,0 4,1.8 4,4 0,2.2 -1.8,4 -4,4 z"
        id="path5"
        fill="none"
        stroke="#FFF"
        stroke-width=".5px"
      />

        <circle
        cx="12"
        cy="14"
        r="4"
        fill="#000"
        />

        <circle
        cx="12"
        cy="14"
        r="2"
        fill="red"
        />
    </g>
</svg>